<?xml version="1.0" standalone="no"?>
<!DOCTYPE svg PUBLIC "-//W3C//DTD SVG 20010904//EN"
 "http://www.w3.org/TR/2001/REC-SVG-20010904/DTD/svg10.dtd">
<svg version="1.0" xmlns="http://www.w3.org/2000/svg"
 width="2344.000000pt" height="2344.000000pt" viewBox="0 0 2344.000000 2344.000000"
 preserveAspectRatio="xMidYMid meet">
<metadata>
Created by potrace 1.14, written by Peter Selinger 2001-2017
</metadata>
<g transform="translate(0.000000,2344.000000) scale(0.100000,-0.100000)"
fill="#000000" stroke="none">
<path d="M11628 23435 c-1 -2 -16 -6 -33 -9 -71 -12 -93 -19 -148 -41 -90 -36
-163 -84 -238 -156 -38 -36 -69 -69 -69 -73 0 -4 -9 -16 -19 -27 -28 -30 -76
-124 -99 -194 -52 -153 -49 -308 7 -496 21 -69 110 -201 182 -271 39 -37 75
-68 80 -68 8 0 6 -35 -7 -145 -2 -16 -7 -59 -10 -95 -7 -76 -11 -115 -14 -115
-1 0 -3 -20 -5 -45 -4 -60 -14 -154 -19 -188 -3 -15 -7 -54 -10 -87 -4 -33 -9
-82 -12 -110 -3 -27 -8 -66 -9 -85 -2 -19 -6 -53 -9 -75 -3 -22 -8 -67 -11
-100 -3 -33 -7 -69 -9 -80 -2 -11 -7 -49 -10 -85 -4 -36 -8 -78 -10 -95 -2
-16 -7 -57 -10 -90 -4 -33 -9 -78 -12 -100 -3 -22 -7 -60 -9 -85 -3 -25 -7
-61 -9 -80 -3 -19 -8 -66 -11 -104 -3 -38 -8 -72 -10 -76 -2 -3 -6 -44 -9 -90
-4 -47 -8 -94 -10 -105 -3 -20 -11 -81 -21 -180 -11 -99 -15 -127 -19 -134 -3
-4 -346 -7 -763 -6 l-758 1 -65 -29 c-36 -16 -121 -57 -190 -90 -69 -33 -181
-86 -250 -119 -243 -116 -336 -161 -440 -211 -58 -28 -111 -52 -118 -53 -8 -1
-22 -10 -31 -18 -10 -9 -24 -16 -32 -16 -26 -1 -65 -40 -40 -40 5 0 63 -25
128 -56 65 -30 147 -69 182 -86 35 -17 98 -46 140 -65 42 -19 113 -53 158 -74
46 -21 87 -39 93 -39 5 0 10 -4 10 -8 0 -4 17 -14 38 -21 41 -15 259 -117 337
-159 l50 -26 752 -1 c414 -1 755 -4 758 -7 4 -3 8 -120 11 -260 10 -605 13
-710 18 -715 2 -3 1 -15 -4 -28 -5 -13 -6 -25 -3 -29 3 -3 7 -101 9 -218 4
-219 11 -618 19 -953 2 -104 6 -323 10 -485 3 -162 8 -396 10 -520 8 -390 16
-747 20 -990 2 -129 7 -336 10 -460 10 -463 18 -881 19 -1052 0 -98 5 -178 10
-178 5 0 3 -6 -3 -13 -6 -8 -8 -17 -5 -20 4 -4 8 -93 10 -199 1 -106 5 -326 9
-488 3 -162 8 -396 10 -520 3 -124 7 -340 11 -480 3 -140 5 -261 5 -267 -2
-26 -1 -42 3 -233 3 -107 8 -314 11 -460 3 -146 8 -380 11 -520 2 -140 6 -353
8 -473 2 -120 6 -220 9 -223 3 -4 2 -16 -3 -29 -5 -13 -6 -25 -3 -29 3 -3 7
-94 9 -203 2 -109 5 -321 8 -471 2 -151 7 -276 10 -279 3 -3 1 -13 -4 -23 -5
-10 -7 -20 -4 -23 4 -3 8 -111 10 -239 8 -474 12 -586 18 -597 4 -6 3 -11 -3
-11 -5 0 -8 -10 -6 -21 4 -19 6 -64 5 -109 0 -8 2 -103 4 -210 7 -261 15 -644
31 -1465 2 -99 4 -182 5 -185 2 -3 2 -8 2 -11 -3 -21 -2 -110 3 -289 2 -113 7
-313 9 -445 3 -132 5 -240 6 -240 0 0 2 -126 5 -280 3 -154 8 -386 11 -515 3
-129 5 -241 5 -247 -2 -22 -1 -33 3 -238 7 -284 15 -667 21 -970 7 -312 15
-731 18 -872 1 -56 6 -105 10 -109 4 -4 7 -15 7 -25 0 -9 4 -19 8 -21 11 -4
112 -206 112 -223 0 -7 4 -15 8 -17 5 -2 57 -101 116 -220 60 -120 111 -218
115 -218 3 1 88 166 189 369 l183 368 3 207 c2 113 6 209 9 212 3 3 2 16 -3
29 -5 13 -6 25 -3 28 3 3 7 106 8 229 2 123 7 342 10 488 5 244 9 445 20 987
2 112 7 207 10 213 3 5 2 10 -3 10 -6 0 -7 14 -2 35 5 21 4 35 -2 35 -5 0 -6
5 -2 11 3 6 8 106 10 222 7 394 13 682 14 682 0 0 3 128 6 285 8 504 12 618
19 629 3 6 3 11 -2 11 -4 0 -7 19 -6 42 3 54 11 415 18 753 2 143 7 377 10
520 3 143 8 364 10 490 3 127 7 343 10 480 3 138 7 351 10 475 2 124 7 367 11
540 3 173 7 399 8 502 0 104 3 188 6 188 3 0 6 84 6 188 1 103 5 338 9 522 10
506 14 731 19 1000 3 135 6 245 6 245 0 0 3 106 5 235 5 276 13 665 21 1017 3
138 7 352 9 475 2 122 7 342 10 488 3 146 8 360 10 475 2 116 7 356 11 535 4
179 7 405 8 502 0 98 3 178 6 178 3 0 6 82 6 183 1 100 4 326 8 502 3 176 8
437 11 580 3 143 7 352 10 465 2 113 7 331 10 485 3 154 8 372 10 485 10 505
18 871 19 943 0 44 5 77 11 78 5 0 336 2 735 3 l725 2 90 43 c50 24 151 72
225 108 74 36 169 81 210 101 41 20 77 37 80 38 3 0 66 30 140 66 74 36 197
95 273 131 75 37 137 68 137 71 0 5 -23 17 -235 116 -49 23 -111 52 -137 65
-25 13 -48 21 -51 19 -2 -2 -10 2 -17 11 -7 8 -18 15 -25 15 -7 0 -43 15 -81
34 -38 19 -98 48 -134 64 -36 17 -114 53 -175 82 -60 29 -139 65 -175 81 -36
16 -81 38 -100 47 -33 17 -88 18 -782 17 -714 -1 -748 0 -750 17 -1 10 -3 30
-4 46 -1 15 -5 47 -9 72 -3 25 -8 65 -10 90 -2 25 -7 65 -10 90 -4 25 -9 68
-11 95 -3 28 -7 68 -9 90 -2 22 -7 67 -10 100 -3 33 -8 74 -11 90 -7 43 -13
91 -18 155 -3 30 -8 75 -11 100 -3 25 -7 65 -10 90 -3 25 -7 59 -9 75 -2 17
-7 58 -10 92 -3 33 -8 76 -10 95 -3 18 -7 56 -10 83 -8 78 -17 157 -22 195 -3
19 -7 60 -10 90 -2 30 -7 71 -9 91 -3 20 -8 59 -10 85 -7 69 -16 145 -20 174
-2 14 -7 55 -9 92 -3 37 -8 77 -10 90 -3 13 -8 54 -11 93 -4 38 -8 72 -10 75
-1 3 16 21 39 40 49 40 126 132 126 149 0 6 4 11 8 11 7 0 53 89 58 110 0 3 6
17 12 31 44 106 56 289 27 409 -33 136 -104 265 -198 360 -91 92 -218 165
-342 196 -16 4 -37 9 -45 11 -20 5 -227 13 -232 8z"/>
</g>
</svg>
